<?xml version="1.0" encoding="utf-8"?>
<!-- Generator: Adobe Illustrator 22.0.1, SVG Export Plug-In . SVG Version: 6.00 Build 0)  -->
<svg version="1.1" id="Layer_1" xmlns="http://www.w3.org/2000/svg" xmlns:xlink="http://www.w3.org/1999/xlink" x="0px" y="0px"
	 viewBox="0 0 84.2 61" style="enable-background:new 0 0 84.2 61;" xml:space="preserve">
<style type="text/css">
	.st0{fill:#C8C8C8;}
	.st1{fill:none;stroke:#6E0091;stroke-width:4;stroke-linejoin:round;stroke-miterlimit:10;}
	.st2{fill:none;stroke:#6E0091;stroke-width:4;stroke-linecap:round;stroke-miterlimit:10;}
	.st3{fill:none;stroke:#6E0091;stroke-width:4;stroke-linecap:round;stroke-linejoin:round;stroke-miterlimit:10;}
	.st4{fill:#6E0091;}
	.st5{fill:none;stroke:#1ACA8E;stroke-width:4;stroke-linecap:round;stroke-linejoin:round;stroke-miterlimit:10;}
	.st6{fill:#1ACA8E;}
</style>
<g>
	<path class="st4" d="M28.5,57H4V40.3c0-1.1-0.9-2-2-2s-2,0.9-2,2V59c0,1.1,0.9,2,2,2h26.5c1.1,0,2-0.9,2-2S29.6,57,28.5,57z"/>
	<path class="st4" d="M82.2,38.3c-1.1,0-2,0.9-2,2V57H55.7c-1.1,0-2,0.9-2,2s0.9,2,2,2h26.5c1.1,0,2-0.9,2-2V40.3
		C84.2,39.2,83.3,38.3,82.2,38.3z"/>
	<path class="st4" d="M82.2,0H55.7c-1.1,0-2,0.9-2,2s0.9,2,2,2h24.5v16.7c0,1.1,0.9,2,2,2s2-0.9,2-2V2C84.2,0.9,83.3,0,82.2,0z"/>
	<path class="st4" d="M2,22.7c1.1,0,2-0.9,2-2V4h24.5c1.1,0,2-0.9,2-2s-0.9-2-2-2H2C0.9,0,0,0.9,0,2v18.7C0,21.8,0.9,22.7,2,22.7z"
		/>
	<path class="st4" d="M42.1,25.6c-2.7,0-4.9,2.2-4.9,4.9c0,2.7,2.2,4.9,4.9,4.9c2.7,0,4.9-2.2,4.9-4.9C47,27.8,44.8,25.6,42.1,25.6z
		"/>
	<path class="st4" d="M55.2,37.9c2-3.5,2.5-7.6,1.4-11.4s-3.6-7.1-7.1-9.1c-3.5-2-7.6-2.5-11.4-1.4c-3.9,1.1-7.1,3.6-9.1,7.1
		c-2,3.5-2.5,7.6-1.4,11.4c1.1,3.9,3.6,7.1,7.1,9.1c2.3,1.3,4.8,2,7.4,2c1.4,0,2.7-0.2,4.1-0.6C50,43.9,53.2,41.4,55.2,37.9
		L55.2,37.9z M51.7,35.9L51.7,35.9c-3,5.3-9.8,7.2-15.1,4.2c-2.6-1.5-4.4-3.8-5.2-6.7c-0.8-2.8-0.4-5.8,1-8.4
		c1.5-2.6,3.8-4.4,6.7-5.2c1-0.3,2-0.4,3-0.4c1.9,0,3.7,0.5,5.4,1.4c2.6,1.5,4.4,3.8,5.2,6.7S53.2,33.4,51.7,35.9z"/>
</g>
</svg>
