<?xml version="1.0" encoding="utf-8"?>
<!-- Generator: Adobe Illustrator 22.0.1, SVG Export Plug-In . SVG Version: 6.00 Build 0)  -->
<svg version="1.1" id="Layer_1" xmlns="http://www.w3.org/2000/svg" xmlns:xlink="http://www.w3.org/1999/xlink" x="0px" y="0px"
	 viewBox="0 0 69 66.1" style="enable-background:new 0 0 69 66.1;" xml:space="preserve">
<style type="text/css">
	.st0{fill:#C8C8C8;}
	.st1{fill:none;stroke:#6E0091;stroke-width:4;stroke-linejoin:round;stroke-miterlimit:10;}
	.st2{fill:none;stroke:#6E0091;stroke-width:4;stroke-linecap:round;stroke-miterlimit:10;}
	.st3{fill:none;stroke:#6E0091;stroke-width:4;stroke-linecap:round;stroke-linejoin:round;stroke-miterlimit:10;}
	.st4{fill:#6E0091;}
	.st5{fill:none;stroke:#1ACA8E;stroke-width:4;stroke-linecap:round;stroke-linejoin:round;stroke-miterlimit:10;}
	.st6{fill:#1ACA8E;}
</style>
<path class="st4" d="M68.8,24.9c-0.8-2.6-3.6-4-6.2-3.1c-1.9,0.6-3.1,2.3-3.3,4.1l-11.2,3.6c-1.3-2.8-3.4-5.1-6.2-6.6
	c-1.7-1-3.5-1.6-5.4-1.8V9.4c1.7-0.8,2.9-2.5,2.9-4.5c0-2.7-2.2-4.9-4.9-4.9c-2.7,0-4.9,2.2-4.9,4.9c0,2,1.2,3.7,2.9,4.5v11.8
	c-0.7,0.1-1.4,0.2-2,0.4c-3.9,1.1-7.1,3.6-9.1,7.1c-0.2,0.3-0.3,0.6-0.4,0.9L9.8,25.9c-0.2-1.9-1.5-3.5-3.3-4.1
	c-2.6-0.8-5.3,0.6-6.2,3.1c-0.8,2.6,0.6,5.3,3.1,6.2c1.9,0.6,3.9,0,5.1-1.4l11.2,3.6c-0.4,2.2-0.3,4.5,0.3,6.7
	c0.7,2.7,2.2,5,4.1,6.8l-6.9,9.5c-1.8-0.4-3.8,0.3-5,1.9c-1.6,2.2-1.1,5.3,1.1,6.8c2.2,1.6,5.3,1.1,6.8-1.1c1.2-1.6,1.2-3.7,0.3-5.3
	l6.9-9.5c2.2,1.2,4.7,1.8,7.1,1.8c1.4,0,2.7-0.2,4.1-0.6c1.1-0.3,2.1-0.7,3.1-1.3l6.9,9.5c-0.9,1.6-0.9,3.7,0.3,5.3
	c1.6,2.2,4.7,2.7,6.8,1.1c2.2-1.6,2.7-4.7,1.1-6.8c-1.2-1.6-3.1-2.3-5-1.9l-6.9-9.5c1.1-1,2-2.2,2.7-3.5c1.8-3.1,2.3-6.6,1.7-10.1
	l11.2-3.6c1.3,1.4,3.2,2,5.1,1.4C68.2,30.2,69.6,27.5,68.8,24.9z M44.1,41.5C44.1,41.5,44.1,41.5,44.1,41.5c-3,5.3-9.8,7.2-15.1,4.2
	c-2.6-1.5-4.4-3.8-5.2-6.7c-0.8-2.8-0.4-5.8,1-8.4c1.5-2.6,3.8-4.4,6.7-5.2c1-0.3,2-0.4,3-0.4c1.9,0,3.7,0.5,5.4,1.4
	c2.6,1.5,4.4,3.8,5.2,6.7C45.9,35.9,45.6,38.9,44.1,41.5z"/>
</svg>
