<?xml version="1.0" encoding="utf-8"?>
<!-- Generator: Adobe Illustrator 22.0.1, SVG Export Plug-In . SVG Version: 6.00 Build 0)  -->
<svg version="1.1" id="Layer_1" xmlns="http://www.w3.org/2000/svg" xmlns:xlink="http://www.w3.org/1999/xlink" x="0px" y="0px"
	 viewBox="0 0 82.4 62.1" style="enable-background:new 0 0 82.4 62.1;" xml:space="preserve">
<style type="text/css">
	.st0{fill:#C8C8C8;}
	.st1{fill:none;stroke:#6E0091;stroke-width:4;stroke-linejoin:round;stroke-miterlimit:10;}
	.st2{fill:none;stroke:#6E0091;stroke-width:4;stroke-linecap:round;stroke-miterlimit:10;}
	.st3{fill:none;stroke:#6E0091;stroke-width:4;stroke-linecap:round;stroke-linejoin:round;stroke-miterlimit:10;}
	.st4{fill:#6E0091;}
	.st5{fill:none;stroke:#1ACA8E;stroke-width:4;stroke-linecap:round;stroke-linejoin:round;stroke-miterlimit:10;}
	.st6{fill:#1ACA8E;}
</style>
<g>
	<path class="st4" d="M80.4,29H9.4c-0.8-1.7-2.5-2.9-4.5-2.9C2.2,26.1,0,28.3,0,31c0,2.7,2.2,4.9,4.9,4.9c2,0,3.7-1.2,4.5-2.9h71.1
		c1.1,0,2-0.9,2-2C82.4,29.9,81.5,29,80.4,29z"/>
	<path class="st4" d="M80.4,55.2H9.4c-0.8-1.7-2.5-2.9-4.5-2.9c-2.7,0-4.9,2.2-4.9,4.9c0,2.7,2.2,4.9,4.9,4.9c2,0,3.7-1.2,4.5-2.9
		h71.1c1.1,0,2-0.9,2-2S81.5,55.2,80.4,55.2z"/>
	<path class="st4" d="M4.9,9.8c2,0,3.7-1.2,4.5-2.9h71.1c1.1,0,2-0.9,2-2s-0.9-2-2-2H9.4C8.6,1.2,6.9,0,4.9,0C2.2,0,0,2.2,0,4.9
		S2.2,9.8,4.9,9.8z"/>
</g>
</svg>
