<?xml version="1.0" encoding="utf-8"?>
<!-- Generator: Adobe Illustrator 22.0.1, SVG Export Plug-In . SVG Version: 6.00 Build 0)  -->
<svg version="1.1" id="Layer_1" xmlns="http://www.w3.org/2000/svg" xmlns:xlink="http://www.w3.org/1999/xlink" x="0px" y="0px"
	 viewBox="0 0 68.1 65" style="enable-background:new 0 0 68.1 65;" xml:space="preserve">
<style type="text/css">
	.st0{fill:#C8C8C8;}
	.st1{fill:none;stroke:#6E0091;stroke-width:4;stroke-linejoin:round;stroke-miterlimit:10;}
	.st2{fill:none;stroke:#6E0091;stroke-width:4;stroke-linecap:round;stroke-miterlimit:10;}
	.st3{fill:none;stroke:#6E0091;stroke-width:4;stroke-linecap:round;stroke-linejoin:round;stroke-miterlimit:10;}
	.st4{fill:#6E0091;}
	.st5{fill:none;stroke:#1ACA8E;stroke-width:4;stroke-linecap:round;stroke-linejoin:round;stroke-miterlimit:10;}
	.st6{fill:#1ACA8E;}
</style>
<g>
	<path class="st4" d="M67.3,23.7l-32-23.3c-0.7-0.5-1.7-0.5-2.4,0l-32,23.3c-0.7,0.5-1,1.4-0.7,2.2l12.2,37.7c0.3,0.8,1,1.4,1.9,1.4
		h39.6c0.9,0,1.6-0.6,1.9-1.4L68,25.9C68.3,25.1,68,24.2,67.3,23.7z M52.4,61H15.7L4.4,26L34,4.5L63.7,26L52.4,61z"/>
	<path class="st4" d="M20.9,28.1c-2,3.5-2.5,7.6-1.4,11.4c1.1,3.9,3.6,7.1,7.1,9.1c2.3,1.3,4.8,2,7.4,2c1.4,0,2.7-0.2,4.1-0.6
		c3.9-1.1,7.1-3.6,9.1-7.1c2-3.5,2.5-7.6,1.4-11.4c-1.1-3.9-3.6-7.1-7.1-9.1S33.9,19.9,30,21C26.1,22.1,22.9,24.6,20.9,28.1z
		 M34.1,24.4c1.9,0,3.7,0.5,5.4,1.4c2.6,1.5,4.4,3.8,5.2,6.7s0.4,5.8-1,8.4c-1.5,2.6-3.8,4.4-6.7,5.2c-2.8,0.8-5.8,0.4-8.4-1
		c-2.6-1.5-4.4-3.8-5.2-6.7c-0.8-2.8-0.4-5.8,1-8.4c1.5-2.6,3.8-4.4,6.7-5.2C32.1,24.6,33.1,24.4,34.1,24.4z"/>
</g>
</svg>
