<?xml version="1.0" encoding="utf-8"?>
<!-- Generator: Adobe Illustrator 22.0.1, SVG Export Plug-In . SVG Version: 6.00 Build 0)  -->
<svg version="1.1" id="Layer_1" xmlns="http://www.w3.org/2000/svg" xmlns:xlink="http://www.w3.org/1999/xlink" x="0px" y="0px"
	 viewBox="0 0 61.9 60.3" style="enable-background:new 0 0 61.9 60.3;" xml:space="preserve">
<style type="text/css">
	.st0{fill:#C8C8C8;}
	.st1{fill:none;stroke:#6E0091;stroke-width:4;stroke-linejoin:round;stroke-miterlimit:10;}
	.st2{fill:none;stroke:#6E0091;stroke-width:4;stroke-linecap:round;stroke-miterlimit:10;}
	.st3{fill:none;stroke:#6E0091;stroke-width:4;stroke-linecap:round;stroke-linejoin:round;stroke-miterlimit:10;}
	.st4{fill:#6E0091;}
	.st5{fill:none;stroke:#1ACA8E;stroke-width:4;stroke-linecap:round;stroke-linejoin:round;stroke-miterlimit:10;}
	.st6{fill:#1ACA8E;}
</style>
<path class="st6" d="M61.2,56.8L30.9,27.5c5-6.7,4.5-16.3-1.6-22.4c-3.2-3.2-7.6-5-12.1-5S8.3,1.8,5,5c-6.7,6.7-6.7,17.6,0,24.3
	c3.2,3.2,7.6,5,12.1,5c4.1,0,7.9-1.4,11-4l30.3,29.3c0.4,0.4,0.9,0.6,1.4,0.6c0.5,0,1-0.2,1.4-0.6C62.1,58.9,62,57.6,61.2,56.8z
	 M7.9,26.5C5.4,24,4,20.7,4,17.2s1.4-6.8,3.9-9.3S13.6,4,17.2,4s6.8,1.4,9.3,3.9c5.1,5.1,5.1,13.5,0,18.6c-2.5,2.5-5.8,3.9-9.3,3.9
	S10.3,29,7.9,26.5z"/>
</svg>
